<mxfile host="app.diagrams.net" modified="2023-02-24T13:10:54.799Z" agent="5.0 (Macintosh; Intel Mac OS X 10_15_7) AppleWebKit/605.1.15 (KHTML, like Gecko) Version/16.2 Safari/605.1.15" etag="MByPAv0-QSWkmnPfVlE_" version="20.8.23" type="github">
  <diagram name="第1頁" id="oT8aMLVGbJNvCzSaGUWB">
    <mxGraphModel dx="970" dy="507" grid="0" gridSize="10" guides="1" tooltips="1" connect="1" arrows="1" fold="1" page="1" pageScale="1" pageWidth="827" pageHeight="1169" math="0" shadow="0">
      <root>
        <mxCell id="0" />
        <mxCell id="1" parent="0" />
        <mxCell id="7StAAg9FyGcrV_dISmPU-3" style="edgeStyle=orthogonalEdgeStyle;rounded=0;orthogonalLoop=1;jettySize=auto;html=1;entryX=0;entryY=0.5;entryDx=0;entryDy=0;" parent="1" source="7StAAg9FyGcrV_dISmPU-1" target="7StAAg9FyGcrV_dISmPU-6" edge="1">
          <mxGeometry relative="1" as="geometry">
            <mxPoint x="330" y="340" as="targetPoint" />
          </mxGeometry>
        </mxCell>
        <mxCell id="7StAAg9FyGcrV_dISmPU-50" style="edgeStyle=orthogonalEdgeStyle;rounded=0;orthogonalLoop=1;jettySize=auto;html=1;exitX=1;exitY=0.75;exitDx=0;exitDy=0;entryX=0;entryY=0;entryDx=0;entryDy=0;fontSize=12;" parent="1" source="7StAAg9FyGcrV_dISmPU-1" target="7StAAg9FyGcrV_dISmPU-30" edge="1">
          <mxGeometry relative="1" as="geometry">
            <Array as="points">
              <mxPoint x="170" y="255" />
              <mxPoint x="170" y="280" />
              <mxPoint x="346" y="280" />
            </Array>
          </mxGeometry>
        </mxCell>
        <mxCell id="7StAAg9FyGcrV_dISmPU-61" style="edgeStyle=orthogonalEdgeStyle;rounded=0;orthogonalLoop=1;jettySize=auto;html=1;fontSize=10;" parent="1" source="7StAAg9FyGcrV_dISmPU-1" edge="1">
          <mxGeometry relative="1" as="geometry">
            <mxPoint x="140" y="160" as="targetPoint" />
          </mxGeometry>
        </mxCell>
        <mxCell id="7StAAg9FyGcrV_dISmPU-1" value="User Input" style="rounded=0;whiteSpace=wrap;html=1;" parent="1" vertex="1">
          <mxGeometry x="80" y="210" width="120" height="60" as="geometry" />
        </mxCell>
        <mxCell id="7StAAg9FyGcrV_dISmPU-2" value="display on &lt;br&gt;the buzz page" style="shape=card;whiteSpace=wrap;html=1;" parent="1" vertex="1">
          <mxGeometry x="324" y="408" width="100" height="60" as="geometry" />
        </mxCell>
        <mxCell id="7StAAg9FyGcrV_dISmPU-5" value="hive page trigger,&lt;br&gt;categories" style="text;html=1;align=center;verticalAlign=middle;resizable=0;points=[];autosize=1;strokeColor=none;fillColor=none;" parent="1" vertex="1">
          <mxGeometry x="200" y="200" width="120" height="40" as="geometry" />
        </mxCell>
        <mxCell id="7StAAg9FyGcrV_dISmPU-29" style="edgeStyle=orthogonalEdgeStyle;rounded=0;orthogonalLoop=1;jettySize=auto;html=1;fontSize=10;entryX=0.5;entryY=1;entryDx=0;entryDy=0;" parent="1" source="7StAAg9FyGcrV_dISmPU-6" target="7StAAg9FyGcrV_dISmPU-8" edge="1">
          <mxGeometry relative="1" as="geometry">
            <mxPoint x="400" y="150" as="targetPoint" />
          </mxGeometry>
        </mxCell>
        <mxCell id="7StAAg9FyGcrV_dISmPU-6" value="Get Cell" style="ellipse;whiteSpace=wrap;html=1;aspect=fixed;" parent="1" vertex="1">
          <mxGeometry x="334" y="200" width="80" height="80" as="geometry" />
        </mxCell>
        <mxCell id="7StAAg9FyGcrV_dISmPU-43" style="edgeStyle=orthogonalEdgeStyle;rounded=0;orthogonalLoop=1;jettySize=auto;html=1;fontSize=12;" parent="1" source="7StAAg9FyGcrV_dISmPU-8" target="7StAAg9FyGcrV_dISmPU-15" edge="1">
          <mxGeometry relative="1" as="geometry" />
        </mxCell>
        <mxCell id="7StAAg9FyGcrV_dISmPU-8" value="Hive entity&lt;br&gt;&amp;nbsp;(database)" style="shape=partialRectangle;whiteSpace=wrap;html=1;left=0;right=0;fillColor=none;rounded=0;strokeColor=default;fontFamily=Helvetica;fontSize=12;fontColor=default;" parent="1" vertex="1">
          <mxGeometry x="314" y="100" width="120" height="40" as="geometry" />
        </mxCell>
        <mxCell id="7StAAg9FyGcrV_dISmPU-9" value="cell list" style="text;html=1;align=center;verticalAlign=middle;resizable=0;points=[];autosize=1;strokeColor=none;fillColor=none;" parent="1" vertex="1">
          <mxGeometry x="585" y="130" width="60" height="30" as="geometry" />
        </mxCell>
        <mxCell id="7StAAg9FyGcrV_dISmPU-11" value="categories" style="text;html=1;align=center;verticalAlign=middle;resizable=0;points=[];autosize=1;strokeColor=none;fillColor=none;" parent="1" vertex="1">
          <mxGeometry x="290" y="160" width="80" height="30" as="geometry" />
        </mxCell>
        <mxCell id="7StAAg9FyGcrV_dISmPU-42" style="edgeStyle=orthogonalEdgeStyle;rounded=0;orthogonalLoop=1;jettySize=auto;html=1;entryX=0.5;entryY=0;entryDx=0;entryDy=0;fontSize=12;" parent="1" source="7StAAg9FyGcrV_dISmPU-15" target="7StAAg9FyGcrV_dISmPU-22" edge="1">
          <mxGeometry relative="1" as="geometry" />
        </mxCell>
        <mxCell id="7StAAg9FyGcrV_dISmPU-15" value="Temp Cell List Storage" style="shape=partialRectangle;whiteSpace=wrap;html=1;left=0;right=0;fillColor=none;rounded=0;strokeColor=default;fontFamily=Helvetica;fontSize=12;fontColor=default;" parent="1" vertex="1">
          <mxGeometry x="590" y="180" width="120" height="40" as="geometry" />
        </mxCell>
        <mxCell id="7StAAg9FyGcrV_dISmPU-21" value="&lt;font style=&quot;font-size: 12px;&quot;&gt;images, text, &lt;br&gt;likes,&amp;nbsp;user id&lt;/font&gt;" style="text;html=1;align=center;verticalAlign=middle;resizable=0;points=[];autosize=1;strokeColor=none;fillColor=none;fontSize=10;" parent="1" vertex="1">
          <mxGeometry x="570" y="240" width="90" height="40" as="geometry" />
        </mxCell>
        <mxCell id="7StAAg9FyGcrV_dISmPU-55" style="edgeStyle=orthogonalEdgeStyle;rounded=0;orthogonalLoop=1;jettySize=auto;html=1;exitX=0;exitY=0.5;exitDx=0;exitDy=0;entryX=1;entryY=0.5;entryDx=0;entryDy=0;fontSize=10;" parent="1" source="7StAAg9FyGcrV_dISmPU-22" target="7StAAg9FyGcrV_dISmPU-54" edge="1">
          <mxGeometry relative="1" as="geometry" />
        </mxCell>
        <mxCell id="7StAAg9FyGcrV_dISmPU-22" value="Generate Cell&amp;nbsp;" style="ellipse;whiteSpace=wrap;html=1;aspect=fixed;fontSize=10;" parent="1" vertex="1">
          <mxGeometry x="610" y="300" width="80" height="80" as="geometry" />
        </mxCell>
        <mxCell id="7StAAg9FyGcrV_dISmPU-47" style="edgeStyle=orthogonalEdgeStyle;rounded=0;orthogonalLoop=1;jettySize=auto;html=1;fontSize=12;entryX=0.5;entryY=0;entryDx=0;entryDy=0;entryPerimeter=0;" parent="1" source="7StAAg9FyGcrV_dISmPU-30" edge="1" target="7StAAg9FyGcrV_dISmPU-2">
          <mxGeometry relative="1" as="geometry">
            <mxPoint x="380" y="476" as="targetPoint" />
          </mxGeometry>
        </mxCell>
        <mxCell id="7StAAg9FyGcrV_dISmPU-52" style="edgeStyle=orthogonalEdgeStyle;rounded=0;orthogonalLoop=1;jettySize=auto;html=1;exitX=0.5;exitY=0;exitDx=0;exitDy=0;entryX=0.5;entryY=1;entryDx=0;entryDy=0;fontSize=12;" parent="1" source="7StAAg9FyGcrV_dISmPU-30" target="7StAAg9FyGcrV_dISmPU-6" edge="1">
          <mxGeometry relative="1" as="geometry" />
        </mxCell>
        <mxCell id="7StAAg9FyGcrV_dISmPU-60" style="edgeStyle=orthogonalEdgeStyle;rounded=0;orthogonalLoop=1;jettySize=auto;html=1;exitX=1;exitY=1;exitDx=0;exitDy=0;entryX=0;entryY=1;entryDx=0;entryDy=0;fontSize=10;" parent="1" source="7StAAg9FyGcrV_dISmPU-30" target="7StAAg9FyGcrV_dISmPU-54" edge="1">
          <mxGeometry relative="1" as="geometry" />
        </mxCell>
        <mxCell id="7StAAg9FyGcrV_dISmPU-30" value="Check is the user&#39;s page &lt;br&gt;is full" style="ellipse;whiteSpace=wrap;html=1;aspect=fixed;fontSize=10;" parent="1" vertex="1">
          <mxGeometry x="334" y="300" width="80" height="80" as="geometry" />
        </mxCell>
        <mxCell id="7StAAg9FyGcrV_dISmPU-40" style="edgeStyle=orthogonalEdgeStyle;rounded=0;orthogonalLoop=1;jettySize=auto;html=1;entryX=0;entryY=0.5;entryDx=0;entryDy=0;fontSize=9;" parent="1" source="7StAAg9FyGcrV_dISmPU-31" target="7StAAg9FyGcrV_dISmPU-30" edge="1">
          <mxGeometry relative="1" as="geometry" />
        </mxCell>
        <mxCell id="7StAAg9FyGcrV_dISmPU-31" value="User Device Monitor Spacing" style="rounded=0;whiteSpace=wrap;html=1;fontSize=10;" parent="1" vertex="1">
          <mxGeometry x="80" y="310" width="120" height="60" as="geometry" />
        </mxCell>
        <mxCell id="7StAAg9FyGcrV_dISmPU-34" value="&lt;font style=&quot;font-size: 12px;&quot;&gt;width, height&lt;/font&gt;" style="text;html=1;align=center;verticalAlign=middle;resizable=0;points=[];autosize=1;strokeColor=none;fillColor=none;fontSize=10;" parent="1" vertex="1">
          <mxGeometry x="215" y="310" width="90" height="30" as="geometry" />
        </mxCell>
        <mxCell id="7StAAg9FyGcrV_dISmPU-37" value="&lt;font style=&quot;font-size: 12px;&quot;&gt;false&lt;/font&gt;" style="text;html=1;align=center;verticalAlign=middle;resizable=0;points=[];autosize=1;strokeColor=none;fillColor=none;fontSize=10;" parent="1" vertex="1">
          <mxGeometry x="425" y="340" width="50" height="30" as="geometry" />
        </mxCell>
        <mxCell id="7StAAg9FyGcrV_dISmPU-46" value="generate success" style="text;html=1;align=center;verticalAlign=middle;resizable=0;points=[];autosize=1;strokeColor=none;fillColor=none;fontSize=12;" parent="1" vertex="1">
          <mxGeometry x="390" y="280" width="120" height="30" as="geometry" />
        </mxCell>
        <mxCell id="7StAAg9FyGcrV_dISmPU-48" value="true" style="text;html=1;align=center;verticalAlign=middle;resizable=0;points=[];autosize=1;strokeColor=none;fillColor=none;fontSize=12;" parent="1" vertex="1">
          <mxGeometry x="368" y="378" width="40" height="30" as="geometry" />
        </mxCell>
        <mxCell id="7StAAg9FyGcrV_dISmPU-51" value="swipe the page" style="text;html=1;align=center;verticalAlign=middle;resizable=0;points=[];autosize=1;strokeColor=none;fillColor=none;fontSize=12;" parent="1" vertex="1">
          <mxGeometry x="215" y="250" width="100" height="30" as="geometry" />
        </mxCell>
        <mxCell id="7StAAg9FyGcrV_dISmPU-59" style="edgeStyle=orthogonalEdgeStyle;rounded=0;orthogonalLoop=1;jettySize=auto;html=1;exitX=0;exitY=0;exitDx=0;exitDy=0;entryX=1;entryY=0;entryDx=0;entryDy=0;fontSize=10;" parent="1" source="7StAAg9FyGcrV_dISmPU-54" target="7StAAg9FyGcrV_dISmPU-30" edge="1">
          <mxGeometry relative="1" as="geometry" />
        </mxCell>
        <mxCell id="7StAAg9FyGcrV_dISmPU-54" value="&lt;font style=&quot;font-size: 9px;&quot;&gt;Generate by &amp;nbsp;descending order by likes from middle to &lt;br&gt;around&lt;/font&gt;" style="ellipse;whiteSpace=wrap;html=1;aspect=fixed;fontSize=12;" parent="1" vertex="1">
          <mxGeometry x="490" y="300" width="80" height="80" as="geometry" />
        </mxCell>
        <mxCell id="7StAAg9FyGcrV_dISmPU-56" value="cell" style="text;html=1;align=center;verticalAlign=middle;resizable=0;points=[];autosize=1;strokeColor=none;fillColor=none;fontSize=10;" parent="1" vertex="1">
          <mxGeometry x="575" y="310" width="40" height="30" as="geometry" />
        </mxCell>
        <mxCell id="-pucl9rHgeiSn8M6B7Zd-1" style="edgeStyle=orthogonalEdgeStyle;rounded=0;orthogonalLoop=1;jettySize=auto;html=1;exitX=1;exitY=0.5;exitDx=0;exitDy=0;entryX=0;entryY=0.5;entryDx=0;entryDy=0;fontSize=12;" parent="1" source="7StAAg9FyGcrV_dISmPU-63" target="7StAAg9FyGcrV_dISmPU-8" edge="1">
          <mxGeometry relative="1" as="geometry" />
        </mxCell>
        <mxCell id="-pucl9rHgeiSn8M6B7Zd-8" style="edgeStyle=orthogonalEdgeStyle;rounded=0;orthogonalLoop=1;jettySize=auto;html=1;exitX=1;exitY=0;exitDx=0;exitDy=0;entryX=0;entryY=0.5;entryDx=0;entryDy=0;fontSize=12;" parent="1" source="7StAAg9FyGcrV_dISmPU-63" target="-pucl9rHgeiSn8M6B7Zd-6" edge="1">
          <mxGeometry relative="1" as="geometry">
            <Array as="points">
              <mxPoint x="290" y="92" />
              <mxPoint x="290" y="50" />
            </Array>
          </mxGeometry>
        </mxCell>
        <mxCell id="7StAAg9FyGcrV_dISmPU-63" value="&lt;font style=&quot;font-size: 12px;&quot;&gt;Post Cell&lt;/font&gt;" style="ellipse;whiteSpace=wrap;html=1;aspect=fixed;fontSize=10;" parent="1" vertex="1">
          <mxGeometry x="100" y="80" width="80" height="80" as="geometry" />
        </mxCell>
        <mxCell id="7StAAg9FyGcrV_dISmPU-64" value="&lt;font style=&quot;font-size: 12px;&quot;&gt;text, image&lt;/font&gt;" style="text;html=1;align=center;verticalAlign=middle;resizable=0;points=[];autosize=1;strokeColor=none;fillColor=none;fontSize=10;" parent="1" vertex="1">
          <mxGeometry x="135" y="170" width="80" height="30" as="geometry" />
        </mxCell>
        <mxCell id="7StAAg9FyGcrV_dISmPU-66" value="&lt;font style=&quot;font-size: 12px;&quot;&gt;text, image, user id&lt;/font&gt;" style="text;html=1;align=center;verticalAlign=middle;resizable=0;points=[];autosize=1;strokeColor=none;fillColor=none;fontSize=9;" parent="1" vertex="1">
          <mxGeometry x="180" y="90" width="120" height="30" as="geometry" />
        </mxCell>
        <mxCell id="-pucl9rHgeiSn8M6B7Zd-3" value="User entity&lt;br&gt;&amp;nbsp;(database)" style="shape=partialRectangle;whiteSpace=wrap;html=1;left=0;right=0;fillColor=none;rounded=0;strokeColor=default;fontFamily=Helvetica;fontSize=12;fontColor=default;" parent="1" vertex="1">
          <mxGeometry x="575" y="30" width="120" height="40" as="geometry" />
        </mxCell>
        <mxCell id="-pucl9rHgeiSn8M6B7Zd-13" style="edgeStyle=orthogonalEdgeStyle;rounded=0;orthogonalLoop=1;jettySize=auto;html=1;entryX=0;entryY=0;entryDx=0;entryDy=0;fontSize=12;" parent="1" source="-pucl9rHgeiSn8M6B7Zd-5" target="-pucl9rHgeiSn8M6B7Zd-6" edge="1">
          <mxGeometry relative="1" as="geometry">
            <Array as="points">
              <mxPoint x="280" y="58" />
              <mxPoint x="280" y="22" />
            </Array>
          </mxGeometry>
        </mxCell>
        <mxCell id="-pucl9rHgeiSn8M6B7Zd-5" value="Browser" style="shape=partialRectangle;whiteSpace=wrap;html=1;left=0;right=0;fillColor=none;rounded=0;strokeColor=default;fontFamily=Helvetica;fontSize=12;fontColor=default;" parent="1" vertex="1">
          <mxGeometry x="70" y="46" width="65" height="24" as="geometry" />
        </mxCell>
        <mxCell id="-pucl9rHgeiSn8M6B7Zd-9" style="edgeStyle=orthogonalEdgeStyle;rounded=0;orthogonalLoop=1;jettySize=auto;html=1;entryX=0;entryY=0.5;entryDx=0;entryDy=0;fontSize=12;" parent="1" source="-pucl9rHgeiSn8M6B7Zd-6" target="-pucl9rHgeiSn8M6B7Zd-3" edge="1">
          <mxGeometry relative="1" as="geometry" />
        </mxCell>
        <mxCell id="-pucl9rHgeiSn8M6B7Zd-6" value="Daily Check Event" style="ellipse;whiteSpace=wrap;html=1;fillColor=none;rounded=0;" parent="1" vertex="1">
          <mxGeometry x="324" y="10" width="80" height="80" as="geometry" />
        </mxCell>
        <mxCell id="-pucl9rHgeiSn8M6B7Zd-11" value="daily check event" style="text;html=1;align=center;verticalAlign=middle;resizable=0;points=[];autosize=1;strokeColor=none;fillColor=none;fontSize=12;" parent="1" vertex="1">
          <mxGeometry x="425" y="20" width="120" height="30" as="geometry" />
        </mxCell>
        <mxCell id="-pucl9rHgeiSn8M6B7Zd-14" value="decoded current user id" style="text;html=1;align=center;verticalAlign=middle;resizable=0;points=[];autosize=1;strokeColor=none;fillColor=none;fontSize=12;" parent="1" vertex="1">
          <mxGeometry x="140" y="32" width="150" height="30" as="geometry" />
        </mxCell>
        <mxCell id="-pucl9rHgeiSn8M6B7Zd-17" value="decoded current user id" style="text;html=1;align=center;verticalAlign=middle;resizable=0;points=[];autosize=1;strokeColor=none;fillColor=none;fontSize=12;" parent="1" vertex="1">
          <mxGeometry x="410" y="60" width="150" height="30" as="geometry" />
        </mxCell>
      </root>
    </mxGraphModel>
  </diagram>
</mxfile>
